Coordinates
version=1
nRows=20
nColumns=30
inDegrees=yes

Units are S.I. units (second, meters, Newtons, ...)
Angles are in degrees.

endheader
time	floatyaw	floatroll	floatpitch	floatx	floaty	floatz	pro_sup_l	deviation_l	flexion_l	cmc_flexion_l	cmc_abduction_l	mp_flexion_l	ip_flexion_l	2mcp_flexion_l	2mcp_abduction_l	2pm_flexion_l	2md_flexion_l	3mcp_flexion_l	3mcp_abduction_l	3pm_flexion_l	3md_flexion_l	4mcp_flexion_l	4mcp_abduction_l	4pm_flexion_l	4md_flexion_l	5mcp_flexion_l	5mcp_abduction_l	5pm_flexion_l	5md_flexion_l
-1.495000	-3.835761	-5.011433	94.526577	-0.007415	-0.269190	-0.005281	93.104287	-0.286437	-1.876163	28.030163	1.888892	-18.607054	-33.710798	17.799619	7.084961	34.064897	20.632022	8.077719	4.900587	35.980895	21.515763	-2.596055	-3.750719	52.766376	32.762267	-23.470635	-11.051491	64.445626	50.765531
-1.485000	-3.835761	-5.011433	94.526577	-0.007405	-0.269190	-0.005255	93.109525	-0.288608	-1.871437	28.038109	1.891928	-18.607092	-33.776502	17.771376	7.077707	34.110401	20.633806	8.025506	4.896319	36.053326	21.531619	-2.598228	-3.748382	52.798639	32.737760	-23.511570	-11.051969	64.478054	50.732906
-1.475000	-3.835761	-5.011433	94.526577	-0.007403	-0.269179	-0.005231	93.107180	-0.293882	-1.860405	28.016677	1.896518	-18.601602	-33.794839	17.749499	7.061820	34.141139	20.632490	7.983992	4.894297	36.101911	21.542161	-2.603712	-3.742906	52.810632	32.717626	-23.552160	-11.055861	64.478460	50.695234
-1.465000	-3.835761	-5.011433	94.526577	-0.007408	-0.269159	-0.005211	93.097212	-0.301391	-1.844255	27.968322	1.901352	-18.591097	-33.760667	17.741906	7.039083	34.147349	20.620532	7.959528	4.894701	36.121912	21.541803	-2.613329	-3.734880	52.805334	32.699004	-23.588416	-11.061678	64.446538	50.660217
-1.455000	-3.835761	-5.011433	94.526577	-0.007420	-0.269133	-0.005197	93.082112	-0.310115	-1.826449	27.904523	1.904554	-18.578244	-33.688719	17.753556	7.012508	34.126544	20.592781	7.956106	4.897551	36.114696	21.525603	-2.625500	-3.725301	52.788602	32.678136	-23.618659	-11.067720	64.390180	50.637732
-1.445000	-3.835761	-5.011433	94.526577	-0.007435	-0.269108	-0.005187	93.065234	-0.319274	-1.811580	27.840633	1.906886	-18.567301	-33.604103	17.784639	6.986137	34.085023	20.550659	7.974384	4.902690	36.086396	21.492946	-2.636647	-3.715473	52.766762	32.654914	-23.641144	-11.073014	64.322936	50.636075
-1.435000	-3.835761	-5.011433	94.526577	-0.007450	-0.269087	-0.005181	93.049193	-0.328471	-1.803308	27.790343	1.912352	-18.562627	-33.530425	17.829687	6.964481	34.036073	20.502577	8.010718	4.909784	36.045907	21.449031	-2.643554	-3.706869	52.745387	32.634399	-23.652560	-11.077757	64.258855	50.658241
-1.425000	-3.835761	-5.011433	94.526577	-0.007461	-0.269073	-0.005180	93.035183	-0.337572	-1.802522	27.761745	1.925289	-18.566741	-33.481205	17.878266	6.951477	33.994863	20.460495	8.057178	4.918281	36.002235	21.403252	-2.645856	-3.700884	52.728555	32.624201	-23.649339	-11.082932	64.207346	50.700125
-1.415000	-3.835761	-5.011433	94.526577	-0.007466	-0.269063	-0.005185	93.023134	-0.346484	-1.806859	27.755640	1.946523	-18.578802	-33.457415	17.917477	6.949285	33.972593	20.434881	8.103128	4.927370	35.962160	21.365593	-2.646801	-3.698523	52.718368	32.629685	-23.631144	-11.089485	64.170837	50.751854
-1.405000	-3.835761	-5.011433	94.526577	-0.007466	-0.269055	-0.005196	93.012386	-0.354826	-1.811895	27.766300	1.971911	-18.594435	-33.451039	17.935660	6.957615	33.973425	20.430827	8.138037	4.936083	35.929691	21.343083	-2.651731	-3.700169	52.715314	32.650349	-23.603446	-11.097718	64.146525	50.801723
-1.395000	-3.835761	-5.011433	94.526577	-0.007461	-0.269044	-0.005213	93.002563	-0.361562	-1.813344	27.784589	1.994417	-18.607273	-33.451924	17.925962	6.974092	33.995672	20.447044	8.154276	4.943607	35.907686	21.338059	-2.665338	-3.705505	52.719954	32.679680	-23.576474	-11.107277	64.131073	50.840473
-1.385000	-3.835761	-5.011433	94.526577	-0.007454	-0.269029	-0.005236	92.994184	-0.364881	-1.808955	27.802059	2.008075	-18.611568	-33.453668	17.888212	6.995375	34.035412	20.477720	8.148505	4.949651	35.900145	21.348834	-2.689727	-3.713634	52.735091	32.708408	-23.560784	-11.117557	64.125083	50.863358
-1.375000	-3.835761	-5.011433	94.526577	-0.007441	-0.269011	-0.005265	92.988452	-0.362692	-1.799016	27.813865	2.010933	-18.604612	-33.455281	17.828416	7.018159	34.089037	20.515802	8.121178	4.954504	35.912642	21.371970	-2.724552	-3.723326	52.766326	32.729026	-23.562485	-11.128123	64.133896	50.869306
-1.365000	-3.835761	-5.011433	94.526577	-0.007421	-0.268989	-0.005300	92.986251	-0.353775	-1.785524	27.819307	2.005226	-18.588002	-33.458767	17.756653	7.039451	34.152427	20.555662	8.075389	4.958618	35.949339	21.404404	-2.768308	-3.733238	52.819076	32.739070	-23.581032	-11.138814	64.163511	50.858946
-1.355000	-3.835761	-5.011433	94.526577	-0.007395	-0.268967	-0.005341	92.987112	-0.338992	-1.770994	27.820589	1.995255	-18.567384	-33.465742	17.684914	7.056367	34.217716	20.593844	8.016672	4.961977	36.007878	21.443912	-2.818774	-3.741962	52.892819	32.741644	-23.610340	-11.149472	64.213874	50.833949
-1.345000	-3.835761	-5.011433	94.526577	-0.007369	-0.268951	-0.005378	92.989191	-0.321602	-1.757814	27.821193	1.984722	-18.550681	-33.476066	17.625323	7.066250	34.271495	20.628060	7.953635	4.963790	36.076339	21.487801	-2.872023	-3.747963	52.976785	32.743226	-23.641958	-11.159594	64.274096	50.798277
-1.335000	-3.835761	-5.011433	94.526577	-0.007352	-0.268944	-0.005402	92.990684	-0.306100	-1.748141	27.824828	1.974770	-18.545194	-33.489102	17.587852	7.067447	34.298018	20.655733	7.897514	4.962873	36.136079	21.531198	-2.921538	-3.749699	53.051728	32.749914	-23.668250	-11.168426	64.323759	50.759370
-1.325000	-3.835761	-5.011433	94.526577	-0.007350	-0.268951	-0.005404	92.992053	-0.295979	-1.743862	27.835136	1.963077	-18.554578	-33.505938	17.577268	7.060255	34.286883	20.673474	7.859400	4.958528	36.169968	21.566645	-2.958963	-3.746050	53.098114	32.763866	-23.683906	-11.175731	64.340909	50.726941
-1.315000	-3.835761	-5.011433	94.526577	-0.007366	-0.268971	-0.005382	92.997348	-0.291791	-1.746275	27.855544	1.944263	-18.577179	-33.530116	17.590953	7.047174	34.240061	20.678028	7.846373	4.951287	36.170778	21.585763	-2.976386	-3.736832	53.105584	32.781626	-23.685457	-11.182604	64.312645	50.709190
-1.305000	-3.835761	-5.011433	94.526577	-0.007394	-0.268997	-0.005339	93.013093	-0.290981	-1.755609	27.888434	1.911968	-18.606665	-33.565716	17.619646	7.032155	34.172706	20.668105	7.859078	4.942946	36.143881	21.582314	-2.968808	-3.722999	53.077096	32.795176	-23.670255	-11.191331	64.241801	50.708639
